<svg width="512" height="512" viewBox="0 0 512 512" fill="none" xmlns="http://www.w3.org/2000/svg">
<g clip-path="url(#clip0)">
<path d="M444.751 412.93C441.731 409.408 437.149 406.596 432.347 404.517C433.822 392.254 430.467 379.595 420.416 371.589C415.112 367.364 408.414 366.441 401.812 366.202C394.248 365.928 386.725 366.347 379.152 366.623C370.152 366.951 361.255 366.691 352.377 365.977C352.577 365.78 352.776 365.578 352.98 365.39C355.736 362.86 358.277 360.331 360.585 357.376C365.178 351.497 368.909 345.331 373.099 339.198C377.064 333.395 379.944 326.71 382.843 320.324C386.251 312.816 389.096 305.264 391.286 297.299C393.432 289.491 394.195 281.74 394.616 273.684C395.016 266.044 395.204 257.704 393.92 250.156C393.339 246.741 392.727 243.339 392.112 239.937C391.862 237.972 391.589 236.019 391.272 234.094C390.477 229.255 389.644 224.463 388.744 219.648C387.672 213.916 387.859 208.543 388.196 202.755C388.51 197.366 381.001 197.064 379.336 201.556C375.592 211.654 369.084 219.992 362.553 228.414C360.939 230.496 359.149 232.423 357.26 234.252C356.14 234.982 354.798 235.83 353.353 236.781C353.677 235.796 353.986 234.818 354.268 233.857C356.253 227.099 358.056 219.68 358.553 212.643C359.324 201.714 357.333 190.226 352.733 180.139C352.029 178.232 351.24 176.328 350.334 174.421C344.883 162.938 336.258 152.909 328.912 142.531C328.241 141.263 327.594 139.983 326.995 138.68C323.625 131.347 320.328 124.208 319.749 116.043C319.293 109.61 321.349 103.189 323.336 97.118C324.303 94.163 320.39 90.699 317.695 92.781C313.973 95.656 311.582 100.517 308.81 104.288C305.266 109.107 302.827 114.463 300.597 119.972C298.874 124.228 296.882 128.505 295.231 132.872C295.208 132.644 295.178 132.418 295.16 132.189C294.707 126.402 294.742 120.773 295.3 114.989C295.964 108.112 296.434 101.176 296.604 94.232C296.82 92.563 297.014 90.888 297.174 89.202C297.746 83.169 297.042 77.429 296.618 71.413C295.806 59.886 290.328 49.279 285.087 39.236C282.116 33.542 279.29 27.783 276.575 21.966C274.132 16.732 271.233 10.965 270.717 5.096C270.38 1.256 265.226 -2.07 262.204 1.57C258.802 5.669 257.999 11.783 256.532 16.804C255.571 20.094 254.457 23.1 253.116 26.007C243.147 40.242 229.735 52.189 223.14 68.513C221.813 71.797 220.725 75.055 219.843 78.321C217.53 86.043 216.543 94.148 216.894 102.253C216.906 102.528 216.917 102.804 216.929 103.079C216.93 103.165 216.93 103.249 216.931 103.335C217.053 110.107 217.341 116.878 217.621 123.64C216.57 120.985 215.445 118.402 214.464 115.964C213.077 112.518 211.77 109.027 210.322 105.623C208.888 102.254 206.608 93.923 201.225 96.92C197.057 99.24 198.524 108.471 197.856 112.456C197.259 114.443 196.526 116.404 195.808 118.286C193.303 124.852 189.913 130.94 186.753 137.207C183.963 142.742 180.493 148.224 177.24 153.513C174.277 158.331 172.011 163.614 170.035 168.92C168.759 171.865 167.549 174.838 166.444 177.838C161.489 191.287 161.288 204.014 163.672 218.013C163.836 218.974 164.004 219.955 164.173 220.937C164.451 224.741 164.853 228.608 165.546 232.391C163.68 230.388 161.814 228.428 160.04 226.527C155.237 221.379 150.436 216.229 145.212 211.497C142.775 209.29 140.306 207.174 137.961 204.866C136.304 203.235 134.874 201.798 132.609 201.074C130.586 200.428 128.915 201.457 128.088 203.026C127.553 203.404 127.19 203.986 127.262 204.741C127.537 207.627 128.305 210.471 129.134 213.322C130.374 218.708 131.618 224.015 131.628 229.784C131.641 236.791 131.051 243.859 130.388 250.841C128.891 266.614 124.824 282.04 125.957 297.951C126.347 303.433 127.686 308.524 129.379 313.619C130.95 321.694 133.412 329.6 137.139 336.899C140.143 342.781 144.399 348.046 148.52 353.256C149.104 354.099 149.698 354.929 150.314 355.732C151.298 357.014 152.304 358.207 153.335 359.344C155.303 361.677 157.475 363.881 159.952 365.624C160.352 365.956 160.754 366.289 161.164 366.618C157.351 367.582 153.546 368.591 149.675 369.238C141.816 370.553 133.899 370.341 126.011 369.543C113.968 368.325 99.154 364.812 88.7 373.262C83.396 377.549 80.42 384.212 79.271 390.792C78.752 393.763 78.19 396.723 78.296 399.755C78.42 403.299 78.367 405.929 75.284 407.748C74.832 408.015 74.384 408.283 73.94 408.553C70.789 409.795 67.897 411.521 65.62 414.119C63.886 416.097 62.772 418.127 62.089 420.213C60.997 422.429 60.255 424.784 59.998 427.419C58.922 438.445 61.592 451.369 67.966 460.57C73.608 468.714 81.943 475.918 92.202 476.953C97.101 477.447 102.101 476.995 106.933 476.184C111.439 475.428 117.017 474.941 120.136 471.268C120.508 475.46 121.403 479.672 123.123 483.384C128.151 494.233 138.519 502.077 149.87 505.481C160.359 508.627 172.58 506.212 182.021 500.821C187.6 497.635 192.362 493.812 197.15 489.578C198.833 488.09 200.928 486.196 202.517 484.055C205.015 488.963 209.539 491.993 213.812 495.731C216.58 498.152 219.596 500.107 222.774 501.813C227.865 505.007 233.641 507.143 239.487 508.67C252.607 512.604 266.647 513.422 279.852 509.118C288.336 506.352 295.159 500.24 301.211 494.006C303.345 491.808 305.142 489.355 306.399 486.702C307.396 487.422 308.412 488.097 309.35 488.743C313.074 491.31 317.158 493.92 321.136 496.098C321.226 496.147 321.317 496.198 321.407 496.247C326.279 499.557 331.537 502.181 337.045 503.648C340.138 504.62 343.309 505.2 346.547 505.089C355.276 504.791 364.648 501.572 372.288 497.418C379.104 493.712 383.899 487.263 386.819 480.185C387.438 478.686 387.958 477.195 388.388 475.71C396.43 478.371 405.9 477.379 414.004 475.767C417.553 475.061 420.78 473.905 423.783 472.399C428.807 470.602 433.446 467.825 436.998 463.889C438.406 462.33 439.627 460.579 440.702 458.709C446.01 452.798 450.413 446.007 451.778 438.059C453.345 428.967 450.85 420.043 444.751 412.93ZM414.575 378.252C421.307 383.616 423.411 393.038 424.531 401.785C423.732 401.569 422.944 401.368 422.182 401.197C419.024 400.488 415.811 399.996 412.596 399.517C411.709 396.856 410.522 394.237 410.543 391.243C410.576 386.573 413.19 382.703 414.376 378.44C414.443 378.38 414.506 378.308 414.575 378.252ZM358.485 374.271C363.818 375.224 369.181 375.837 374.617 375.486C381.741 375.025 388.861 373.547 395.943 373.399C397.136 373.394 398.326 373.409 399.508 373.457C399.646 373.464 399.785 373.465 399.923 373.474C400.011 373.478 400.099 373.486 400.187 373.49C402.966 373.679 405.737 374.143 408.499 375.033C409.426 375.331 410.279 375.699 411.098 376.099C407.178 379.974 405.328 387.05 405.073 392.044C404.985 393.771 405.032 396.103 405.422 398.388C405.353 398.376 405.284 398.365 405.216 398.353C399.716 397.362 394.268 396.165 388.797 395.02C369.377 390.954 350.21 384.878 331.108 379.626C324.861 377.909 317.629 376.608 310.61 376.585C310.776 376.178 310.952 375.763 311.187 375.345C311.25 375.232 311.326 375.141 311.392 375.033C313.807 372.884 316.364 371.042 319.944 370.515C326.578 369.539 333.862 371.545 340.414 372.547C346.311 373.448 352.395 373.991 358.485 374.271ZM264.434 397.924C260.492 396.222 255.686 395.865 251.54 396.97C249.66 397.471 247.69 398.369 246 399.429C245.903 399.453 245.805 399.469 245.709 399.496C245.509 399.06 245.223 398.634 244.831 398.23C239.144 392.381 231.629 391.781 224.338 393.551C224.177 392.598 223.911 391.229 223.818 390.933C223.225 389.061 222.449 387.56 221.284 385.982C218.958 382.832 216.144 380.284 212.585 378.648C209.789 377.363 206.855 376.699 203.871 376.453C203.542 375.346 203.365 373.993 202.883 373.042C202.317 371.924 201.627 370.831 200.761 369.91C200.731 369.743 200.675 369.57 200.574 369.394C199.711 367.886 198.611 366.676 197.553 365.387C196.389 361.931 194.613 358.809 192.718 355.425C188.177 347.315 183.533 338.756 181.027 329.747C180.565 328.088 180.23 326.431 179.982 324.776C179.511 317.461 180.533 310.112 179.506 302.834C179.124 300.134 174.934 292.428 178.645 291.5C181.985 290.665 188.349 298.619 190.684 300.494C194.054 303.2 196.267 306.819 199.092 310.017C201.159 312.356 203.638 314.353 206.086 316.278C207.245 317.189 211.204 319.615 210.314 315.687C209.717 313.048 208.385 310.676 207.667 308.046C206.829 304.978 206.122 301.84 205.374 298.746C204.926 296.893 204.59 295.101 204.331 293.33C203.698 287.285 203.612 281.208 204.639 275.164C206.837 262.23 212.686 250.949 218.887 239.565C225.241 227.9 231.233 215.467 234.342 202.479C235.64 197.06 236.656 191.352 236.986 185.781C237.139 183.195 237.01 180.611 236.843 178.031C238.648 180.673 240.245 183.467 241.62 185.955C245.061 192.182 247.724 198.923 250.676 205.406C250.81 205.7 250.987 205.937 251.192 206.122C251.818 207.42 253.533 210.948 255.471 208.754C256.329 207.782 255.108 205.51 254.934 204.389C254.172 199.485 254.268 194.218 253.922 189.257C253.425 182.121 254.543 174.434 255.952 167.445C257.191 161.3 258.806 155.166 260.95 149.268C261.115 148.813 261.299 148.362 261.476 147.911C261.205 156.466 261.492 164.973 263.444 173.588C266.725 188.065 274.642 200.438 282.677 212.672C285.91 217.594 289.547 221.85 291.965 227.301C295.123 234.419 296.206 241.915 296.537 249.649C296.529 250.243 296.533 250.835 296.504 251.434C296.102 259.753 295.407 268.71 292.992 276.697C291.201 282.622 287.942 288.082 286.48 294.079C286.131 295.511 285.939 297.173 286.855 298.328C288.112 299.912 297.877 290.182 298.685 289.248C299.897 288.007 301.038 286.679 302.097 285.24C302.119 285.215 302.142 285.188 302.164 285.164C303.267 283.945 304.226 282.682 305.109 281.37C304.095 285.218 302.774 289.003 301.333 292.683C299.582 297.155 298.296 301.864 296.246 306.22C294.992 308.885 291.332 313.415 291.717 316.441C291.885 317.764 292.609 319.364 294.131 319.612C296.162 319.944 298.382 319.225 300.438 318.254C305.422 316.896 311.055 312.237 313.728 310.131C318.163 306.638 321.716 302.084 324.546 297.227C326.024 294.691 327.189 292.048 328.366 289.366C328.699 288.607 331.228 284.244 331.048 283.869C333.879 289.783 333.525 298.314 333.92 304.083C334.462 312.004 333.856 319.765 333.432 327.673C333.038 335.039 332.369 342.568 330.259 349.654C329.316 352.821 328.262 356.362 326.514 359.202C325.604 360.681 324.707 361.714 324.142 362.912C320.229 362.853 316.348 363.345 312.836 365.029C308.652 367.035 303.322 372.031 302.996 377.132C301.352 377.385 299.746 377.731 298.199 378.191C291.671 380.133 285.305 385.99 283.898 392.863C283.547 392.78 283.201 392.686 282.846 392.612C277.384 391.465 268.225 392.837 264.434 397.924ZM269.536 412.714C271.071 415.067 272.424 417.53 273.785 419.986C278.587 428.657 281.744 438.152 286.603 446.791C287.478 448.346 288.504 449.881 289.584 451.417C288.554 450.944 287.62 450.542 286.878 450.219C277.256 446.036 266.493 444.318 256.083 443.486C245.721 442.658 234.073 444.436 224.502 448.489C222.917 449.16 221.449 449.917 220.071 450.746C220.333 450.341 220.589 449.939 220.833 449.541C224.997 442.733 228.977 435.417 231.651 427.899C233.334 423.169 235.515 418.924 238.076 414.625C238.616 413.719 239.107 412.763 239.584 411.791C240.613 410.281 241.722 408.83 242.965 407.483C244.227 406.115 245.669 404.819 247.267 403.796C249.375 403.349 251.519 403.085 253.065 402.933C256.315 402.614 259.492 403.129 262.344 404.579C265.267 406.714 267.596 409.741 269.536 412.714ZM153.607 346.686C153.124 346.076 152.645 345.466 152.168 344.856C150.333 341.825 148.591 338.734 146.873 335.661C142.143 327.195 137.95 317.506 135.61 307.654C134.215 300.513 133.678 293.229 134.346 285.685C135.635 271.141 138.68 256.84 139.238 242.218C139.248 241.967 139.254 241.716 139.263 241.465C139.687 236.342 140.086 231.19 139.754 226.07C139.531 222.642 138.906 219.338 138.172 216.065C138.866 216.768 139.584 217.46 140.383 218.134C141.303 218.91 142.193 219.679 143.071 220.447C147.383 224.548 151.396 228.883 155.462 233.215C159.479 238.261 163.798 242.869 167.55 248.144C170.521 252.32 173.31 256.91 177.484 259.967C181.353 262.8 185.809 257.418 183.728 253.723C177.135 242.016 174.523 226.67 172.544 213.473C171.977 209.692 171.553 205.922 171.479 202.151C171.693 197.596 172.235 193.098 173.087 188.653C174.646 182.667 177.052 176.931 179.485 171.252C184.713 159.048 191.546 147.782 197.287 135.843C198.104 134.144 198.809 132.447 199.437 130.738C200.874 126.826 202.156 119.763 205.706 117.375C206.449 118.048 206.693 118.827 207.079 119.764C209.542 125.754 210.831 132.15 213.278 138.145C214.362 140.8 220.735 152.719 223.754 144.18C225.634 138.864 225.135 132.935 225.143 127.377C225.152 121.282 224.744 115.101 224.461 109.009C224.163 102.592 224.182 96.367 224.935 90.287C225.731 85.185 226.948 80.193 228.685 75.212C229.435 73.312 230.288 71.423 231.286 69.545C237.019 58.764 246.405 50.531 253.515 40.696C257.009 35.863 260.729 31.002 263.199 25.55C263.936 23.924 264.598 22.26 265.226 20.584C266.137 22.611 267.166 24.548 267.866 26.22C269.888 31.046 272.719 35.649 275.217 40.255C278.541 46.383 282.207 52.235 284.619 58.828C287.035 65.434 287.835 72.846 288.004 79.826C288.169 86.654 288.055 93.44 287.668 100.246C287.314 106.466 286.418 112.698 286.305 118.93C286.194 125.068 286.167 130.979 286.722 137.133C287.236 142.835 288.86 150.162 293.366 153.976C294.442 154.887 295.884 154.912 296.9 154.261C297.444 154.369 298.012 154.289 298.602 153.953C301.357 152.382 301.657 141.978 302.096 139.036C302.491 136.386 303.149 133.897 303.997 131.477C304.693 129.897 305.392 128.319 306.057 126.728C306.331 126.072 306.603 125.416 306.875 124.76C307.14 124.229 307.408 123.698 307.687 123.166C309.145 120.388 310.724 117.682 312.292 114.971C312.271 121.665 313.471 128.119 315.884 134.401C320.813 147.232 328.296 158.851 336.233 170.035C340.554 176.123 344.02 182.628 346.327 189.511C347.64 195.763 348.021 202.229 347.579 208.913C347.079 216.466 345.664 223.709 343.981 231.076C342.782 236.326 340.585 241.279 339.701 246.629C339.365 248.664 338.434 252.768 339.853 254.62C341.155 256.32 342.481 256.164 343.672 255.24C343.753 255.201 343.822 255.144 343.9 255.098C347.981 254.438 352.447 249.475 355.181 247.395C360.17 243.6 365.202 239.642 369.036 234.623C369.08 234.565 369.124 234.508 369.168 234.45C369.312 234.33 369.461 234.218 369.603 234.096C374.032 230.302 377.534 225.655 380.293 220.565C380.975 224.29 381.681 228.004 382.206 231.761C383.55 241.381 384.227 251.063 384.825 260.757C385.084 264.95 384.496 269.004 384.486 273.182C384.476 277.816 384.132 282.634 383.26 287.195C382.013 293.723 380.025 300.069 378.337 306.477C375.708 312.962 372.859 319.346 369.632 325.547C365.788 332.933 360.081 339.292 355.067 345.897C352.861 348.803 350.618 351.543 348.017 354.109C346.408 355.696 344.763 357.236 343.26 358.929C342.554 359.663 341.901 360.44 341.301 361.261C341.063 361.496 340.919 361.657 340.858 361.752C339.491 362.305 338.688 363.324 338.356 364.481C336.744 364.271 335.133 364.053 333.519 363.813C332.902 363.721 332.265 363.641 331.636 363.556C332.292 362.651 332.891 361.705 333.371 360.671C334.986 357.193 336.117 353.497 337.111 349.808C337.511 348.323 337.831 346.823 338.118 345.317C340.44 338.038 342.024 330.1 342.833 322.559C343.608 315.335 342.216 307.329 340.711 300.236C340.556 299.507 340.338 298.802 340.108 298.105C340.099 297.989 340.094 297.873 340.085 297.756C339.558 290.908 338.328 281.582 333.581 276.257C332.655 275.218 330.867 275.063 329.705 275.76C326.975 277.397 325.43 281.251 323.771 283.865C320.702 288.702 317.207 293.299 313.657 297.786C311.068 301.059 308.401 304.44 305.219 307.141C304.127 308.068 302.962 308.95 301.758 309.752C301.829 309.608 301.897 309.461 301.967 309.317C302.858 307.726 303.687 306.09 304.389 304.339C305.863 300.661 306.989 296.868 308.073 293.062C308.106 292.973 308.137 292.882 308.171 292.793C309.869 288.27 311.372 283.292 312.163 278.525C312.596 275.918 312.523 273.284 313.023 270.689C313.045 270.575 313.068 270.46 313.089 270.346C313.532 268.263 314.297 266.364 314.222 264.207C314.127 261.498 310.74 259.881 308.742 261.937C306.788 263.948 305.918 267.041 304.468 269.471C303.515 271.07 302.558 272.663 301.604 274.257C302.997 268.45 303.616 262.467 303.561 256.774C303.425 242.633 302.17 228.313 293.721 216.403C285.186 204.373 275.227 192.041 271.148 177.584C269.056 170.17 267.163 162.637 267.168 154.884C267.17 150.996 266.99 147.056 267.207 143.171C267.213 143.061 267.227 142.953 267.234 142.843C268.273 137.566 270.482 132.291 270.006 126.994C269.38 120.033 262.031 131.947 261.426 133.002C258.501 138.101 256.02 143.461 254.163 149.042C251.964 155.647 250.204 162.398 249.004 169.261C248.216 173.769 247.551 178.636 247.472 183.389C247.355 183.176 247.232 182.952 247.118 182.744C245.175 179.198 242.779 176.03 240.536 172.664C239.037 170.414 237.509 167.639 235.475 165.831C233.185 163.794 229.628 165.198 229.496 168.308C229.239 174.338 230.357 180.387 229.922 186.48C229.45 193.092 228.074 199.933 226.013 206.222C221.531 219.902 214.843 232.247 208.054 244.861C201.928 256.244 197.637 268.903 197.116 281.888C196.881 287.765 197.416 293.672 198.588 299.44C196.838 297.707 195.038 296.043 193.234 294.463C189.597 291.278 186.043 287.934 182.141 285.061C178.813 282.611 174.543 279.115 170.479 278.182C167.639 277.53 165.326 280.463 166.733 283.055C175.844 299.846 170.08 319.031 176.499 336.556C179.479 344.693 183.754 352.098 188.395 359.386C189.709 361.45 191.167 363.388 192.527 365.401C186.746 363.718 180.44 363.506 174.489 364.103C168.514 364.703 165.281 361.975 161.348 357.232C158.562 353.868 156.314 350.105 153.607 346.686ZM100.008 375.032C111.197 371.428 122.54 374.752 133.891 375.486C145.566 376.241 156.729 373.222 168.019 370.774C174.804 369.303 181.816 368.83 188.691 370.09C192.322 370.756 195.436 371.999 197.321 375.345C197.534 375.723 197.697 376.098 197.849 376.468C195.329 376.665 192.812 377.066 190.349 377.57C172.681 381.182 155.122 386.419 137.798 391.356C128.184 394.096 118.584 397.142 108.918 399.888C106.772 400.227 104.622 400.546 102.473 400.869C103.707 396.565 103.8 391.832 102.913 387.579C102.309 384.686 101.126 381.908 99.207 379.668C98.399 378.724 97.517 377.519 96.5 376.554C97.575 375.958 98.735 375.442 100.008 375.032ZM93.048 379.03C94.274 382.033 96.803 384.995 97.305 388.058C98.111 392.973 97.221 397.433 95.23 401.988C93.622 402.244 92.014 402.504 90.406 402.789C88.183 403.183 85.913 403.708 83.666 404.383C84.677 395.357 86.395 385.066 93.048 379.03ZM118.672 463.33C118.481 463.445 118.291 463.574 118.102 463.732C116.599 464.992 110.068 466.244 107.353 466.765C102.415 467.712 97.202 467.883 92.269 466.856C87.025 465.765 82.411 463.743 78.593 460.739C77.492 459.634 76.446 458.441 75.449 457.178C69.599 449.766 66.958 439.914 66.971 430.579C66.978 425.698 68.344 421.843 71.488 418.024C71.915 417.506 72.383 417.021 72.866 416.549C77.617 414.353 84.318 413.671 88.659 414.109C96.126 414.862 103.041 419.084 107.841 424.715C112.304 429.95 115.905 436.45 117.763 443.099C119.253 448.431 119.391 453.918 120.011 459.323C119.61 460.666 119.153 462.001 118.672 463.33ZM121.849 437.504C118.956 430.05 114.583 423.224 109.329 418.29C105.612 414.799 100.872 412.011 95.832 410.508C97.289 410.192 98.741 409.864 100.195 409.542C100.958 409.495 101.723 409.443 102.49 409.378C118.068 408.072 132.793 402.995 147.355 397.565C158.882 394.418 170.486 391.392 182.132 388.811C189.534 387.171 197.174 384.089 204.906 385.463C208.101 386.031 210.875 387.423 213.015 389.879C214.985 392.141 215.287 394.246 215.938 396.575C213.542 397.702 211.273 398.98 209.224 400.29C198.109 407.395 187.105 414.63 175.891 421.568C169.741 425.373 162.957 428.294 156.22 430.935C150.413 433.212 144.418 434.763 138.893 437.641C133.386 440.509 128.478 443.106 125.125 448.522C124.599 444.801 123.43 441.079 121.849 437.504ZM174.69 490.113C174.078 492.398 173.07 494.418 171.51 495.667C171.045 496.039 170.531 496.343 169.965 496.566C162.957 499.323 154.046 498.646 147.283 495.613C139.633 492.182 131.416 486.118 127.605 478.614C122.581 468.722 126.416 456.423 135.091 449.9C136.726 449.1 138.469 448.523 140.276 448.197C144.165 448.419 148.096 449.28 150.444 450.155C156.203 452.302 162.863 458.099 166.694 462.892C170.729 467.941 171.782 474.548 173.184 480.655C173.879 483.681 174.608 486.408 174.693 489.559C174.697 489.743 174.691 489.928 174.69 490.113ZM205.434 459.602C204.148 461.724 203.08 463.917 202.333 466.215C201.347 468.96 200.696 471.843 200.59 474.736C200.369 474.819 200.151 474.925 199.94 475.074C196.93 477.219 195.191 480.094 192.468 482.641C192.084 483 191.695 483.336 191.31 483.686C187.872 486.227 184.486 488.872 180.949 491.195C180.975 488.658 180.533 486.004 179.976 483.454C179.736 480.595 179.027 477.661 177.985 474.777C176.345 467.858 173.837 460.954 168.359 456.153C162.358 450.894 156.058 445.628 147.939 444.395C147.65 444.351 147.351 444.31 147.053 444.269C148.244 443.831 149.429 443.385 150.579 442.891C154.758 441.095 158.92 439.31 162.982 437.254C163.435 437.024 163.882 436.783 164.332 436.55C169.411 434.552 174.381 432.304 179.071 429.467C188.102 424.003 197.003 418.208 205.725 412.261C213.302 407.094 230.315 394.93 238.664 404.395C238.671 404.403 238.678 404.409 238.685 404.417C235.078 407.63 232.382 412.521 230.079 416.284C227.984 419.706 226.409 423.316 224.843 426.998C223.188 430.891 220.848 434.283 218.87 438.011C214.888 445.517 209.554 452.212 205.434 459.602ZM298.789 479.972C296.923 487.265 286.921 491.713 281.424 495.771C281.206 495.932 281.033 496.111 280.889 496.298C276.81 497.957 272.708 499.415 268.168 500.279C260.141 501.807 251.316 501.122 243.377 499.353C235.259 497.544 226.806 495.467 220.408 489.887C217.716 487.539 215.134 484.916 212.8 482.226C211.034 480.191 209.869 478.003 208.687 475.807C211.192 459.172 228.723 451.763 244.645 449.463C248.654 449.136 252.674 449.184 256.565 449.572C265.201 450.433 274.393 451.846 282.434 455.258C285.035 456.362 287.495 457.592 289.87 459.112C290.459 459.489 291.022 459.901 291.578 460.325C295.304 463.967 298.522 469.286 299.121 474.683C299.318 476.456 299.232 478.238 298.789 479.972ZM328.494 490.638C324.714 488.55 321.303 486.016 317.653 483.733C317.165 483.428 316.538 483.075 315.853 482.689C314.176 481.476 312.475 480.313 310.728 479.244C310.248 478.78 309.861 478.305 309.632 477.824C309.389 477.315 309.081 476.92 308.738 476.603C311.637 468.241 302.564 456.138 298.405 450.067C292.632 441.641 288.161 432.269 283.928 423.024C280.572 415.695 276.797 407.251 270.484 401.786C271.448 401.396 272.405 401.049 273.312 400.77C277.147 399.589 280.506 400.087 284.167 401.136C287.434 402.485 290.537 404.464 293.508 406.09C296.487 407.721 299.417 409.423 302.33 411.152C304.125 412.444 305.899 413.723 307.667 414.906C319.274 422.671 331.625 430.06 344.105 436.513C344.58 436.759 345.05 437.013 345.527 437.255C345.749 437.367 345.974 437.471 346.196 437.582C346.834 437.906 347.47 438.24 348.108 438.559C350.045 439.527 352.183 440.445 354.41 441.371C355.425 441.813 356.443 442.251 357.461 442.69C353.529 443.722 350.008 445.172 346.428 448.306C341.107 452.965 336.359 458.905 332.988 465.123C330.228 470.212 328.717 475.62 328.408 481.366C328.266 483.984 327.791 487.625 328.494 490.638ZM372.924 487.024C367.717 491.839 360.203 494.643 353.38 496.31C349.009 497.378 344.409 497.866 340.049 496.506C338.76 496.104 337.487 495.555 336.229 494.939C335.022 493.617 334.225 491.764 333.726 489.73C333.997 487.315 333.861 484.666 334.039 483.046C334.874 475.429 336.723 469.59 341.187 463.155C341.648 462.491 342.126 461.823 342.614 461.157C343.035 460.691 343.46 460.232 343.895 459.79C349.516 454.074 355.824 448.14 364.402 447.898C366.272 447.845 368.106 448.086 369.865 448.564C376.555 452.641 381.608 458.165 381.384 467.063C381.214 473.79 377.901 482.421 372.924 487.024ZM381.728 447.293C377.245 442.759 371.343 439.678 365.41 437.226C347.384 429.777 329.665 419.857 313.422 409.065C306.277 404.318 299.433 398.996 291.685 395.531C291.933 394.793 292.185 394.067 292.473 393.376C295.101 389.679 297.758 386.482 303.564 385.554C311.587 384.271 321.116 385.702 328.844 387.849C336.385 389.944 343.961 391.949 351.537 393.961C369.263 400.577 387.007 407.785 406.02 409.379C406.501 409.419 406.98 409.449 407.46 409.482C401.394 412.626 395.563 418.211 392.289 421.776C385.76 428.883 382.005 437.886 381.728 447.293ZM439.874 446.006C439.287 447.064 438.656 448.099 437.982 449.1C433.007 456.492 424.999 463.913 416.401 466.607C415.762 466.807 415.1 466.995 414.429 467.176C410.043 467.827 405.494 467.595 401.156 466.764C398.441 466.244 391.911 464.992 390.407 463.731C390.219 463.573 390.029 463.443 389.837 463.329C389.631 462.76 389.431 462.19 389.236 461.62C388.917 459.959 388.436 458.298 387.785 456.636C386.978 453.094 386.728 449.488 387.688 445.769C389.63 438.241 392.757 432.513 397.476 426.456C400.202 422.956 403.464 419.641 407.189 417.102C409.582 415.583 412.019 414.317 414.751 413.495C415.605 413.238 416.349 413.053 417.034 412.82C418.27 412.574 419.535 412.419 420.834 412.384C424.416 412.288 428.742 413.033 432.704 414.566C436.901 417.22 440.26 420.842 442.252 425.695C442.511 426.327 442.719 426.962 442.904 427.598C443.697 433.585 442.018 440.219 439.874 446.006Z" fill="white"/>
<path d="M162.482 94.59C157.484 86.011 150.48 73.662 140.666 70.15C136.984 68.832 134.163 73.369 135.838 76.43C141.172 86.176 137.756 96.279 134.155 106.021C130.551 115.77 126.894 125.009 125.45 135.394C124.04 145.538 124.325 155.86 126.575 165.866C127.67 170.74 132.268 189.413 140.439 185.023C148.615 180.63 155.986 169.054 159.672 160.775C164.7 149.479 168.09 138.298 169.61 125.991C170.945 115.183 167.909 103.906 162.482 94.59ZM162.471 131.952C160.814 141.654 157.443 151.691 152.592 160.299C150.343 164.291 147.737 168.497 144.772 171.979C143.419 173.568 140.044 178.619 137.52 177.977C135.291 177.411 134.252 171.837 133.596 169.981C131.798 164.886 130.918 159.346 130.501 153.982C129.646 142.97 131.182 131.913 134.487 121.393C137.215 112.711 141.438 104.579 143.653 95.718C144.578 92.018 145.505 88.097 145.546 84.259C145.548 84.071 145.533 83.889 145.529 83.702C150.555 88.295 154.874 94.19 158.015 99.42C164.058 109.479 164.397 120.676 162.471 131.952Z" fill="white"/>
<path d="M366.17 67.49C366.166 67.472 366.161 67.454 366.158 67.436C366.022 65.886 365.809 64.345 365.5 62.82C363.456 52.748 356.723 44.832 349.199 38.171C344.88 34.348 340.225 30.842 336.886 26.09C334.06 22.069 332.618 17.959 331.366 13.485C331.489 10.859 331.979 8.17499 332.707 5.38399C333.08 3.95699 331.677 2.20299 330.122 2.79899C329.169 3.16399 328.251 3.72499 327.363 4.40999C324.204 5.38699 322.112 8.60799 320.241 11.303C317.407 15.385 315.674 20.265 314.084 24.946C310.488 35.531 308.795 47.057 311.291 58.098C313.635 68.467 320.479 77.054 326.56 85.548C330.232 90.677 333.346 96.894 334.388 103.163C335.359 109.006 333.841 114.168 333.171 119.905C332.698 123.951 337.887 124.876 340.355 122.881C344.467 119.556 348.667 114.899 351.863 110.687C354.928 106.648 357.863 102.484 360.019 97.896C365.38 88.731 368.234 78.283 366.17 67.49ZM355.137 89.672C353.509 94.109 351.237 98.527 348.449 102.622C346.9 104.332 345.279 105.98 343.654 107.621C343.66 107.307 343.678 106.996 343.67 106.68C343.528 100.898 341.854 95.506 339.574 90.238C335.545 80.93 328.545 73.215 323.279 64.609C317.605 55.338 317.426 43.722 319.807 33.386C320.987 28.267 322.492 23.079 324.671 18.289C325.017 17.528 325.411 16.794 325.816 16.065C326.103 23.162 329.27 29.764 334.504 34.977C341.885 42.329 351.089 47.991 356.155 57.355C361.75 67.697 358.966 79.233 355.137 89.672Z" fill="white"/>
</g>
<defs>
<clipPath id="clip0">
<rect width="512.001" height="512.001" fill="white"/>
</clipPath>
</defs>
</svg>
