<svg width="423" height="423" viewBox="0 0 423 423" fill="none" xmlns="http://www.w3.org/2000/svg">
<g clip-path="url(#clip0)">
<path d="M250.534 40.667C238.534 26.667 227.734 14.267 219.334 3.86701C218.934 3.06701 218.134 2.66701 217.734 2.26701C213.334 -1.33299 206.934 -0.532986 203.334 3.86701C194.934 14.267 184.134 26.667 172.134 40.667C119.334 101.867 46.134 186.667 46.134 257.467C46.134 303.067 64.534 344.267 94.534 374.267C124.534 403.867 165.734 422.667 211.334 422.667C256.934 422.667 298.134 404.267 328.134 374.267C358.134 344.267 376.534 303.067 376.534 257.467C376.534 186.667 303.334 101.867 250.534 40.667ZM313.734 359.467C287.334 385.867 251.334 402.267 211.334 402.267C171.334 402.267 135.334 385.867 108.934 359.867C82.934 333.867 66.534 297.467 66.534 257.467C66.534 194.267 136.934 112.667 187.734 53.867C196.134 43.867 204.134 34.667 211.334 25.867C218.534 34.667 226.534 43.867 234.934 53.467C285.734 112.267 356.134 193.467 356.134 257.067C356.134 297.067 339.734 333.067 313.734 359.467Z" fill="white"/>
<path d="M212.134 349.867C187.334 349.867 164.934 339.867 148.934 323.867C132.934 307.867 122.934 285.467 122.934 260.667C122.934 255.067 118.534 250.667 112.934 250.667C107.334 250.667 102.934 255.067 102.934 260.667C102.934 291.067 115.334 318.267 134.934 338.267C154.134 357.467 181.734 369.867 212.134 369.867C217.734 369.867 222.134 365.467 222.134 359.867C222.134 354.267 217.734 349.867 212.134 349.867Z" fill="white"/>
</g>
<defs>
<clipPath id="clip0">
<rect width="422.667" height="422.667" fill="white"/>
</clipPath>
</defs>
</svg>
